<svg xmlns="http://www.w3.org/2000/svg" width="40" height="40" viewBox="0 0 40 40">
  <g fill="#D81B60">
    <rect x="18" y="0" width="4" height="4"/>
    <rect x="18" y="36" width="4" height="4"/>
    <rect x="0" y="18" width="4" height="4"/>
    <rect x="36" y="18" width="4" height="4"/>
    <rect x="6" y="6" width="3" height="3"/>
    <rect x="31" y="6" width="3" height="3"/>
    <rect x="6" y="31" width="3" height="3"/>
    <rect x="31" y="31" width="3" height="3"/>
    <rect x="18" y="18" width="4" height="4" opacity="0.85"/>
    <rect x="12" y="0" width="2" height="2" opacity="0.7"/>
    <rect x="26" y="0" width="2" height="2" opacity="0.7"/>
    <rect x="0" y="12" width="2" height="2" opacity="0.7"/>
    <rect x="0" y="26" width="2" height="2" opacity="0.7"/>
    <rect x="38" y="12" width="2" height="2" opacity="0.7"/>
    <rect x="38" y="26" width="2" height="2" opacity="0.7"/>
    <rect x="12" y="38" width="2" height="2" opacity="0.7"/>
    <rect x="26" y="38" width="2" height="2" opacity="0.7"/>
  </g>
</svg>
