<svg xmlns="http://www.w3.org/2000/svg" width="48" height="48" viewBox="0 0 48 48">
  <g fill="#D81B60">
    <rect x="22" y="0" width="4" height="4"/>
    <rect x="22" y="44" width="4" height="4"/>
    <rect x="0" y="22" width="4" height="4"/>
    <rect x="44" y="22" width="4" height="4"/>
    <rect x="8" y="8" width="3" height="3"/>
    <rect x="37" y="8" width="3" height="3"/>
    <rect x="8" y="37" width="3" height="3"/>
    <rect x="37" y="37" width="3" height="3"/>
    <rect x="22" y="22" width="4" height="4"/>
    <rect x="14" y="0" width="2" height="2" opacity="0.75"/>
    <rect x="32" y="0" width="2" height="2" opacity="0.75"/>
    <rect x="0" y="14" width="2" height="2" opacity="0.75"/>
    <rect x="0" y="32" width="2" height="2" opacity="0.75"/>
    <rect x="46" y="14" width="2" height="2" opacity="0.75"/>
    <rect x="46" y="32" width="2" height="2" opacity="0.75"/>
    <rect x="14" y="46" width="2" height="2" opacity="0.75"/>
    <rect x="32" y="46" width="2" height="2" opacity="0.75"/>
    <rect x="22" y="11" width="4" height="2" opacity="0.6"/>
    <rect x="22" y="35" width="4" height="2" opacity="0.6"/>
    <rect x="11" y="22" width="2" height="4" opacity="0.6"/>
    <rect x="35" y="22" width="2" height="4" opacity="0.6"/>
  </g>
</svg>
