<svg xmlns="http://www.w3.org/2000/svg" viewBox="0 0 800 600" width="100%" height="100%" preserveAspectRatio="none">
  <defs>
    <pattern id="top-bottom-pattern" x="0" y="0" width="14" height="18" patternUnits="userSpaceOnUse">
      <path d="M 7,3 L 12,9 L 7,15 L 2,9 Z" fill="none" stroke="#e63974" stroke-width="1.25"/>
      <circle cx="7" cy="9" r="1.75" fill="#e63974"/>
      <line x1="0" y1="9" x2="14" y2="9" stroke="#e63974" stroke-width="0.65"/>
      <line x1="7" y1="0" x2="7" y2="18" stroke="#e63974" stroke-width="0.45" stroke-dasharray="1,2"/>
    </pattern>
    <pattern id="left-right-pattern" x="0" y="0" width="18" height="14" patternUnits="userSpaceOnUse">
      <path d="M 9,2 L 15,7 L 9,12 L 3,7 Z" fill="none" stroke="#e63974" stroke-width="1.25"/>
      <circle cx="9" cy="7" r="1.75" fill="#e63974"/>
      <line x1="9" y1="0" x2="9" y2="14" stroke="#e63974" stroke-width="0.65"/>
      <line x1="0" y1="7" x2="18" y2="7" stroke="#e63974" stroke-width="0.45" stroke-dasharray="1,2"/>
    </pattern>
  </defs>
  <rect width="800" height="600" fill="#ffffff"/>
  <rect x="10" y="10" width="780" height="580" fill="none" stroke="#e63974" stroke-width="1.25"/>
  <rect x="14" y="14" width="772" height="572" fill="none" stroke="#e63974" stroke-width="0.65"/>
  <rect x="48" y="48" width="704" height="504" fill="none" stroke="#e63974" stroke-width="0.65"/>
  <rect x="52" y="52" width="696" height="496" fill="none" stroke="#e63974" stroke-width="1.25"/>
  <rect x="48" y="22" width="704" height="18" fill="url(#top-bottom-pattern)"/>
  <rect x="48" y="560" width="704" height="18" fill="url(#top-bottom-pattern)"/>
  <rect x="20" y="48" width="18" height="504" fill="url(#left-right-pattern)"/>
  <rect x="762" y="48" width="18" height="504" fill="url(#left-right-pattern)"/>
  <rect x="18" y="18" width="18" height="18" fill="#e63974" opacity="0.9"/>
  <rect x="21" y="21" width="12" height="12" fill="#ffffff"/>
  <circle cx="27" cy="27" r="3.25" fill="#e63974"/>
  <rect x="764" y="18" width="18" height="18" fill="#e63974" opacity="0.9"/>
  <rect x="767" y="21" width="12" height="12" fill="#ffffff"/>
  <circle cx="773" cy="27" r="3.25" fill="#e63974"/>
  <rect x="18" y="564" width="18" height="18" fill="#e63974" opacity="0.9"/>
  <rect x="21" y="567" width="12" height="12" fill="#ffffff"/>
  <circle cx="27" cy="573" r="3.25" fill="#e63974"/>
  <rect x="764" y="564" width="18" height="18" fill="#e63974" opacity="0.9"/>
  <rect x="767" y="567" width="12" height="12" fill="#ffffff"/>
  <circle cx="773" cy="573" r="3.25" fill="#e63974"/>
</svg>
